<svg height="512" viewBox="0 0 64 64" width="512" xmlns="http://www.w3.org/2000/svg"><path d="m61 12-2 22s-32.09 3-38 3c-13.25 0-18-5-18-5a5.2 5.2 0 0 1 .7-1 9.14 9.14 0 0 1 .99-1c1.65-1.43 4.76-3.2 10.31-3.8.26-.02.64-.06 1-.1.53-.05 1-.1 1-.1h34l6-14z" fill="#87cee9"/><path d="m48 31 7 8h4l-4-8z" fill="#32b1cc"/><path d="m20 34 15 15h4l-6-15z" fill="#32b1cc"/><path d="m20 26 15-13h4l-6 13z" fill="#32b1cc"/><g fill="#fcf05a"><path d="m18 29h2v2h-2z"/><path d="m22 29h2v2h-2z"/><path d="m26 29h2v2h-2z"/><path d="m30 29h2v2h-2z"/><path d="m34 29h2v2h-2z"/><path d="m38 29h2v2h-2z"/><path d="m42 29h2v2h-2z"/></g><path d="m16 26.1v4.9h-12.3a9.14 9.14 0 0 1 .99-1c1.65-1.43 4.76-3.2 10.31-3.8.26-.02.64-.06 1-.1z" fill="#ffd782"/></svg>